<svg width="100.4mm" height="40.709mm" version="1.1" viewBox="0 0 100.4 40.709" xmlns="http://www.w3.org/2000/svg">
 <g transform="translate(.0066928 -1.1311)">
  <g transform="matrix(3.7626 0 0 3.7859 -.73889 -3.9196)" fill="none" stroke="#000" stroke-width=".26495">
   <g stroke-linecap="round" stroke-linejoin="round" stroke-width=".14572">
    <path d="m7.5445 2.702a0.74083 0.74083 0 0 0-0.74083 0.74083"/>
    <path d="m6.8037 3.4428v4.445"/>
    <path d="m6.8037 7.8878a0.74083 0.74083 0 0 0 0.74083 0.74083"/>
    <path d="m16.011 8.6286h-8.4667"/>
    <path d="m16.011 8.6286a0.74083 0.74083 0 0 0 0.74083-0.74083"/>
    <path d="m16.752 7.8878v-4.445"/>
    <path d="m16.752 3.4428a0.74083 0.74083 0 0 0-0.74083-0.74083"/>
    <path d="m7.5445 2.702h8.4667"/>
   </g>
   <g stroke-linecap="round" stroke-linejoin="round">
    <g stroke-width=".14572">
     <path d="m26.805 10.424-2.6e-4 0.14409-8e-4 0.07535-2e-3 0.07514-2e-3 0.0663-3e-3 0.06604-5e-3 0.06996-7e-3 0.06948-4e-3 0.03463-5e-3 0.03445-5e-3 0.03397-6e-3 0.03376-9e-3 0.04479-0.0101 0.04429-0.0115 0.04376-7e-3 0.02572-8e-3 0.02551-8e-3 0.02387-8e-3 0.0236-0.014 0.03598-0.0152 0.03532-0.0165 0.03461-0.0177 0.03384-0.0212 0.03662-0.0228 0.03553-0.0243 0.03432-0.0259 0.03307-0.0275 0.03172-0.029 0.03029-0.0284 0.02699-0.0297 0.02566-0.0309 0.02432-0.032 0.02294-0.0331 0.02156-0.0341 0.02013-0.033 0.01775-0.0338 0.01656-0.0345 0.01537-0.0351 0.01421-0.0237 0.0088-0.024 0.0083-0.0487 0.01527-0.0412 0.01132-0.0416 0.01011-0.0421 9e-3 -0.0308 0.0058-0.0309 0.0053-0.0332 0.0051-0.0334 0.0046-0.0607 7e-3 -0.0612 0.0055-0.0616 0.0042-0.0464 0.0024-0.0465 0.0019-0.0708 0.0019-0.0715 0.0011-0.0479 2.64e-4 -0.13139 2.38e-4"/>
     <path d="m2.6671 3.9218-2.0616 2.9471"/>
     <path d="m0.63562 8.4738-0.0542-0.07768-0.0527-0.07721-0.0257-0.03889-0.0321-0.05008-0.0309-0.05059-0.0171-0.02942-0.0166-0.02961-0.0141-0.02638-0.0136-0.02651-0.0218-0.04559-0.0102-0.02297-0.01-0.0231-0.0136-0.03485-0.0123-0.03508-0.011-0.03535-0.01-0.03559-5e-3 -0.02117-4e-3 -0.02125-4e-3 -0.02074-3e-3 -0.02082-3e-3 -0.02823-2e-3 -0.02826-1e-3 -0.02826-2.6e-4 -0.02693 5.3e-4 -0.02693 2e-3 -0.02688 2e-3 -0.02011 2e-3 -0.02008 6e-3 -0.03998 8e-3 -0.03971 0.0102-0.03945 0.012-0.0391 0.0128-0.03617 0.0142-0.03585 0.0155-0.03553 0.0123-0.02598 0.0129-0.0258 0.0139-0.02654 0.0144-0.02635 0.0226-0.03913 0.0236-0.03881 0.0244-0.03852 0.0252-0.03842 0.0341-0.05048 0.0232-0.03366 0.0467-0.06686"/>
     <path d="m3.7466 2.3826-1.0795 1.5392"/>
     <path d="m5.6208 1.4069-0.12285 2.12e-4 -0.0612 5.29e-4 -0.0916 0.0019-0.0684 0.0024-0.0681 0.0036-0.0678 0.0051-0.0673 0.0067-0.0334 4e-3 -0.0333 0.0046-0.0594 0.0096-0.0588 0.01138-0.0291 0.0064-0.0289 7e-3 -0.0383 0.01005-0.0379 0.01103-0.0375 0.01199-0.0259 9e-3 -0.0257 0.0095-0.0251 0.0098-0.0249 0.01032-0.0331 0.0146-0.0327 0.01551-0.0322 0.0164-0.0317 0.01725-0.0312 0.01812-0.0308 0.01897-0.0224 0.0146-0.0222 0.01503-0.0225 0.0159-0.0222 0.01635-0.0224 0.01714-0.0221 0.01762-0.0432 0.03651-0.0421 0.03815-0.041 0.03969-0.0399 0.04109-0.0432 0.04715-0.042 0.04858-0.041 0.04977-0.0259 0.0326-0.0256 0.03299-0.0336 0.04448-0.0332 0.04503-0.0334 0.04628-0.0332 0.0467-0.0662 0.09422"/>
     <path d="m22.351 1.407 0.11997 1.32e-4 0.12041 0.0011 0.067 0.0011 0.0669 0.0019 0.0523 0.0021 0.0522 0.0027 0.0788 0.0054 0.0413 0.0036 0.0412 0.0042 0.0369 0.0042 0.0367 0.0048 0.0578 0.0087 0.0573 0.01019 0.0567 0.01183 0.0561 0.01352 0.0546 0.01516 0.027 0.0083 0.0268 0.0088 0.0354 0.01243 0.0351 0.01331 0.0346 0.01421 0.041 0.01828 0.0403 0.01961 0.0396 0.02093 0.0388 0.02228 0.0381 0.0236 0.035 0.02334 0.0343 0.02447 0.0336 0.02553 0.0329 0.02662 0.0216 0.01828 0.0212 0.01876 0.0416 0.03871 0.0338 0.0335 0.033 0.0345 0.0322 0.03543 0.0237 0.02715 0.0234 0.0276 0.0457 0.05641 0.0361 0.04651 0.0355 0.04733 0.047 0.06459 0.0311 0.04374 0.0616 0.08771"/>
     <path d="m5.6208 1.4069h16.73"/>
     <path d="m24.327 2.3392 1.9918 2.8446"/>
     <path d="m26.805 6.7242-2.4e-4 -0.1106-5.3e-4 -0.05514-2e-3 -0.08247-2e-3 -0.06165-4e-3 -0.06141-5e-3 -0.06115-7e-3 -0.06083-8e-3 -0.06046-9e-3 -0.05406-0.0106-0.05368-0.0122-0.05323-0.0139-0.05278-0.0156-0.05231-0.0187-0.0557-0.0206-0.05506-0.0225-0.05437-0.0243-0.05368-0.026-0.053-0.017-0.03254-0.0175-0.03228-0.0184-0.03254-0.0189-0.03231-0.0376-0.06152-0.0392-0.06083-0.0285-0.04286-0.0584-0.08522-0.048-0.06874"/>
     <path d="m26.805 6.7242v3.7001"/>
     <path d="m25.215 12.014h-20.91"/>
     <path d="m4.3055 12.014-0.10536-1.33e-4 -0.0528-2.64e-4 -0.0784-0.0011-0.0578-0.0016-0.0576-0.0021-0.0445-0.0024-0.0443-0.0029-0.0433-0.0035-0.0431-0.0042-0.0577-0.0068-0.0573-0.0083-0.0568-0.01-0.0562-0.01172-0.0556-0.0136-0.0275-0.0075-0.0273-8e-3 -0.0487-0.01577-0.048-0.01749-0.0472-0.01923-0.0464-0.02101-0.0455-0.02275-0.0317-0.0172-0.0313-0.01807-0.0308-0.01892-0.0225-0.01455-0.0222-0.015-0.0225-0.01582-0.0222-0.0163-0.043-0.0335-0.0418-0.03511-0.0407-0.03662-0.0397-0.03807-0.039-0.03977-0.038-0.04093-0.0371-0.04204-0.0258-0.03048-0.0255-0.0309-0.0279-0.03495-0.0276-0.03543-0.0346-0.04561-0.0342-0.04633-0.0452-0.06276-0.03-0.04231-0.0594-0.08461"/>
     <path d="m0.63562 8.4738 1.7956 2.5644"/>
    </g>
    <g stroke-width=".067033">
     <circle transform="scale(1,-1)" cx="20.245" cy="-5.6653" r=".99478"/>
     <circle transform="scale(1,-1)" cx="20.245" cy="-5.6653" r=".82408"/>
     <path d="m21.818 6.076 0.635-0.36663"/>
     <path d="m22.453 5.7093a0.050826 0.050826 0 0 0 0-0.08803"/>
     <path d="m21.818 5.2547 0.635 0.36663"/>
     <path d="m21.818 5.2547a0.050826 0.050826 0 0 0-0.0762 0.04403"/>
     <path d="m21.742 5.2987v0.73324"/>
     <path d="m21.742 6.0319a0.050826 0.050826 0 0 0 0.0762 0.04403"/>
     <path d="m19.834 7.2386 0.36663 0.635"/>
     <path d="m20.201 7.8736a0.050826 0.050826 0 0 0 0.088 0"/>
     <path d="m20.655 7.2386-0.3666 0.635"/>
     <path d="m20.655 7.2386a0.050826 0.050826 0 0 0-0.044-0.07623"/>
     <path d="m19.878 7.1623h0.73324"/>
     <path d="m19.878 7.1623a0.050826 0.050826 0 0 0-0.044 0.07623"/>
     <path d="m20.655 4.0921-0.3666-0.635"/>
     <path d="m20.289 3.4571a0.050826 0.050826 0 0 0-0.088 0"/>
     <path d="m19.834 4.0921 0.36663-0.635"/>
     <path d="m19.834 4.0921a0.050826 0.050826 0 0 0 0.044 0.07623"/>
     <path d="m20.611 4.1683h-0.73324"/>
     <path d="m20.611 4.1683a0.050826 0.050826 0 0 0 0.044-0.07623"/>
     <path d="m18.671 5.2547-0.635 0.36663"/>
     <path d="m18.036 5.6213a0.050826 0.050826 0 0 0 0 0.08803"/>
     <path d="m18.671 6.076-0.635-0.36663"/>
     <path d="m18.671 6.076a0.050826 0.050826 0 0 0 0.0763-0.04403"/>
     <path d="m18.748 6.0319v-0.73324"/>
     <path d="m18.748 5.2987a0.050826 0.050826 0 0 0-0.0763-0.04403"/>
     <path d="m22.454 5.7111a0.052917 0.052917 0 0 0 0-0.09165"/>
     <path d="m21.819 5.2529a0.052917 0.052917 0 0 0-0.0794 0.04583"/>
     <path d="m21.819 5.2529 0.635 0.36661"/>
    </g>
    <g stroke-width=".14572">
     <circle transform="scale(1,-1)" cx="20.245" cy="-5.6653" r="2.7288"/>
     <circle transform="scale(1,-1)" cx="23.949" cy="-7.5936" r=".84099"/>
     <circle transform="scale(1,-1)" cx="17.466" cy="-8.3112" r=".16338"/>
    </g>
    <g stroke-width=".067033">
     <path d="m22.741 3.9174a3.0473 3.0473 0 1 0-2.4962 4.7952"/>
     <path d="m23.949 8.7127h-3.7042"/>
     <path d="m23.949 8.7127a1.1191 1.1191 0 0 0 0.9167-1.7609"/>
     <path d="m22.741 3.9174 2.1246 3.0343"/>
     <path d="m6.0499 3.1283-2.7317 3.9012"/>
     <path d="m7.3328 2.2281-0.0385 2.12e-4 -0.035 7.93e-4 -0.0346 0.0013-0.0292 0.0019-0.0289 0.0026-0.0312 0.0037-0.0309 0.0046-0.041 0.0078-0.0407 0.0097-0.0405 0.01169-0.0211 0.0069-0.021 0.0074-0.0419 0.01648-0.0417 0.0186-0.0413 0.02064-0.041 0.02257-0.0405 0.02442-0.0399 0.02614-0.0233 0.01622-0.023 0.01675-0.0229 0.01736-0.0226 0.01783-0.0444 0.03696-0.0433 0.03858-0.0421 0.04001-0.0409 0.04122-0.0397 0.04225-0.0385 0.0431-0.0373 0.04374-0.0243 0.02955-0.0238 0.02969-0.0289 0.03704-0.0281 0.03712-0.0328 0.04434-0.032 0.04432-0.0314 0.04416-0.0647 0.09237"/>
     <path d="m7.3328 2.2281h14.599"/>
     <path d="m21.932 2.2281 0.0557 1.59e-4 0.028 2.64e-4 0.0423 0.0011 0.0319 0.0013 0.032 0.0019 0.054 0.0045 0.027 3e-3 0.027 0.0036 0.0404 0.0065 0.0402 0.0078 0.04 0.0093 0.0397 0.01077 0.045 0.01416 0.0444 0.01609 0.0438 0.01799 0.0432 0.01984 0.0425 0.02164 0.0417 0.02331 0.0409 0.02487 0.0324 0.02111 0.0318 0.02199 0.0313 0.02283 0.0231 0.01765 0.0228 0.01804 0.0446 0.03723 0.0434 0.03863 0.0422 0.03982 0.0411 0.04085 0.0399 0.04175 0.026 0.02823 0.0256 0.02855 0.0498 0.05781 0.0423 0.0513 0.0411 0.05178 0.034 0.04408 0.0333 0.04419 0.0444 0.06038 0.0435 0.06035 0.0359 0.05054 0.0708 0.10075"/>
     <path d="m23.49 3.2939 1.9428 2.7747"/>
     <path d="m25.433 6.0685 0.0761 0.10896 0.0376 0.05482 0.0282 0.04218 0.0281 0.04326 0.0333 0.05382 0.0168 0.02857 0.0163 0.02897 0.0147 0.0272 0.0141 0.02754 0.0186 0.03884 0.0173 0.03953 0.0158 0.04016 0.0135 0.03868 0.0119 0.03916 0.0102 0.03958 8e-3 0.03985 6e-3 0.03561 5e-3 0.03569 4e-3 0.03567 2e-3 0.0267 1e-3 0.02659 1e-3 0.05734 1.6e-4 0.04474"/>
     <path d="m25.813 7.022v2.1942"/>
     <path d="m25.813 9.2162-5.3e-4 0.04323-1e-3 0.02188-2e-3 0.02307-3e-3 0.02318-4e-3 0.02913-6e-3 0.02918-8e-3 0.02913-9e-3 0.02889-9e-3 0.0227-0.01 0.02246-0.0105 0.02222-8e-3 0.01648-9e-3 0.0163-0.0193 0.03202-0.021 0.03109-0.0226 0.03011-0.024 0.02902-0.0259 0.02847-0.0272 0.02728-0.0284 0.02606-0.0295 0.02479-0.0305 0.0235-0.0315 0.02215-0.0324 0.02072-0.029 0.01691-0.0297 0.01577-0.0302 0.01455-0.0307 0.01328-0.0307 0.01183-0.0311 0.01053-0.0314 0.0092-0.0315 0.0078-0.021 0.0044-0.021 0.0038-0.0212 0.0033-0.0211 0.0027-0.0417 0.0038-0.0284 0.0016-0.028 7.94e-4 -0.0546 5.29e-4"/>
     <path d="m5.5935 9.96h19.366"/>
     <path d="m3.3265 7.9229-0.0177-0.02572-0.0216-0.03344-0.0114-0.01897-0.011-0.01953-0.0139-0.0267-0.013-0.02768-8e-3 -0.01786-7e-3 -0.01815-7e-3 -0.01844-6e-3 -0.01868-8e-3 -0.0285-7e-3 -0.02892-6e-3 -0.02926-5e-3 -0.02953-4e-3 -0.03371-3e-3 -0.03389-1e-3 -0.03397 2.6e-4 -0.03402 2e-3 -0.03395 3e-3 -0.03379 5e-3 -0.03336 6e-3 -0.03299 8e-3 -0.03254 9e-3 -0.03199 0.0105-0.03133 0.0119-0.03056 0.0128-0.02905 0.0139-0.02813 0.0149-0.02707 0.0146-0.02434 0.0106-0.01664 0.0208-0.03072"/>
     <path d="m3.3265 7.9229 1.1 1.5709"/>
     <path d="m5.5935 9.96-0.0948-5.3e-4 -0.0477-7.93e-4 -0.0721-0.0021-0.0412-0.0019-0.0415-0.0026-0.0391-3e-3 -0.0393-0.0038-0.0569-0.0068-0.0285-0.0041-0.0286-0.0046-0.038-7e-3 -0.038-8e-3 -0.0378-0.0092-0.0423-0.01175-0.0419-0.01339-0.0414-0.01513-0.0407-0.01696-0.0315-0.01476-0.031-0.01601-0.0303-0.01725-0.0296-0.01852-0.0287-0.01979-0.0278-0.02103-0.0268-0.02217-0.0257-0.02323-0.0162-0.01569-0.0157-0.01606-0.0157-0.01688-0.0152-0.01717-0.0285-0.03455-0.0257-0.0335-0.0169-0.02318-0.0317-0.04485"/>
    </g>
   </g>
   <g stroke-linecap="round" stroke-linejoin="round" stroke-width=".10598">
    <path d="m2.5296 4.4709-1.29 1.8422"/>
    <path d="m15.262 1.6303h6.8513"/>
    <path d="m11.334 1.6303h-5.5072"/>
    <path d="m22.364 11.828h-2.9536"/>
   </g>
   <path d="m23.71 7.1511c-0.0471 0.0038-0.0807 0.04274-0.12092 0.06338-0.0584 0.03937-0.12223 0.07202-0.17609 0.11751-0.0255 0.03189-0.0156 0.08613 0.0226 0.10391 0.0843 0.05487 0.16731 0.11242 0.25537 0.16097 0.0425 0.01418 0.0913-0.02437 0.0885-0.06933-5.3e-4 -0.02088-4e-3 -0.04254 0.0247-0.03333 0.1052 0.0019 0.21148-0.0011 0.31601 0.0038 0.0558 0.02024 0.10338 0.06634 0.11566 0.12546 2e-3 0.04196 6e-3 0.08722-0.0207 0.12304-0.0299 0.05176-0.0895 0.08287-0.14906 0.07799-0.11267 0.0033-0.22729-0.0013-0.34024 0.0031-0.0582 0.01516-0.099 0.07562-0.0879 0.13531 8e-3 0.05584 0.0604 0.10492 0.1185 0.09774 0.12549 0.0011 0.25132 0.0042 0.3766-0.0039 0.18752-0.02455 0.34427-0.19925 0.34018-0.38974 9e-3 -0.17366-0.11362-0.34151-0.27968-0.39049-0.0939-0.02931-0.19374-0.01773-0.29054-0.0213h-0.12304c6e-3 -0.03573-5.2e-4 -0.07933-0.0371-0.09628-0.01-0.0055-0.0214-0.0082-0.0328-0.0079z" stroke-linecap="round" stroke-linejoin="round" stroke-opacity=".99377" stroke-width=".067033" style="paint-order:stroke fill markers"/>
   <path id="TEXT" d="m8.8026 11.39 0.49601-1.0819 1.4408-0.0226m-1.7023 0.57889 1.0563 0.01135m1.0785-0.60818-0.52898 1.1429 1.277-0.0018m0.87139-1.1086-0.45199 1.1051m0.60729 4.27e-4 0.45668-1.1294 1.2711-0.0063-0.21292 0.57048-1.2436-0.02777m1.5271 0.60232 0.42563-1.1387 1.3233-0.0013-0.22589 0.53932-1.2839-0.0016m3.331-0.53282-1.2817 0.01665-0.4855 1.1125 1.2791-0.0058m-0.02146-0.5299-1.0435 0.01066m1.5276 0.53411 0.517-1.1472 1.2904-0.0042-0.24123 0.60444-1.3007-0.01156m0.82752 0.01665 0.52846 0.50304" stroke-linecap="round" stroke-width=".14572"/>
   <g id="DOLPHIN" transform="matrix(.67137 0 0 .67068 -1.6873 1.1548)" stroke-width=".21717">
    <g fill="none">
     <path d="m24.266 3.355c1.373 0.118 1.45 1.237 1.485 1.45m-10.354 1.08c0.722-2.189 2.1219-2.3262 3.3684-2.3964 1.2465-0.070235 1.9344 0.33513 2.6766 0.91443 0.32992 0.25752 0.68 1.053 0.68 1.053s0.908-0.46 1.397-0.444c0.333 0.012 0.927 0.122 0.929 0.366 2e-3 0.245-2.09 2.391-2.09 2.391l2.234 0.085s0.187 0.545-0.276 0.913c-0.462 0.367-2.95 1.12-2.95 1.12"/>
     <path d="m24.387 5.503s-0.379-0.065-0.83 0.094c-0.45 0.158-1.503 1.282-1.99 1.838-0.486 0.558-1.411 1.485-2.636 0.888 0.065 0.033 0.937 0.458 2.697 0.34 1.777-0.118 2.31-0.314 2.702-0.586"/>
     <path d="m23.25 8.435c-0.183-0.526-1.656-0.83-1.916-0.593-0.261 0.237-0.28059 0.78857-0.28059 0.78857m-3.9984-0.37857c0.412-1.19 1.556-1.205 1.836-1.09 0.281 0.116 0.568 0.127 0.568 0.127"/>
     <path d="m19.11 7.25c0.382-1.206-0.535-1.829-1.312-1.767-0.589 0.048-1.064 0.692-1.031 1.369 0.034 0.708 0.522 1 0.522 1"/>
    </g>
    <path d="m18.243 6.063a0.968 0.968 0 0 0-0.477-0.023c-0.448 0.09-0.837 0.684-0.264 1.513l1.11-0.525s0.1-0.206 0.067-0.524c-0.02-0.2-0.196-0.366-0.436-0.441zm-0.386 0.33a0.216 0.216 0 0 1 0.135 0.273 0.216 0.216 0 0 1-0.274 0.135 0.216 0.216 0 0 1-0.135-0.273 0.216 0.216 0 0 1 0.274-0.136z" fill="#000"/>
    <path d="m22.171 5.421c-0.97 0.55-1.133 0.82-1.133 0.82m3.276-1.914a0.523 0.523 0 0 1 0.4 0.493m-0.433-1.002c0.858 0.146 0.977 0.968 0.98 0.973" fill="none"/>
   </g>
  </g>
 </g>
</svg>
